<?xml version="1.0" encoding="UTF-8"?>
<svg id="_레이어_1" data-name="레이어_1" xmlns="http://www.w3.org/2000/svg" version="1.1" viewBox="0 0 228.21 78.71">
  <!-- Generator: Adobe Illustrator 30.5.1, SVG Export Plug-In . SVG Version: 2.1.4 Build 3)  -->
  <defs>
    <style>
      .st0 {
        fill: #2e392c;
      }
    </style>
  </defs>
  <path class="st0" d="M37.22,6.67v11.17H13.52v33.85c1.35-.05,2.91-.14,4.7-.25,1.78-.11,3.2-.19,4.26-.25.99-.11,2.69-.26,5.09-.46,2.4-.19,4.33-.38,5.79-.54,1.23-.11,2.9-.3,5-.58,2.11-.28,3.77-.5,5-.67l1.4,11.42c-.76.11-1.98.28-3.64.5-1.67.22-3.03.39-4.08.5-1.64.22-3.77.43-6.41.62-2.63.2-4.59.35-5.88.46-1.58.11-3.85.24-6.8.38-2.96.14-5.11.24-6.45.29-1.17.06-2.87.11-5.09.17-2.22.06-3.77.08-4.65.08H0V6.67h37.22ZM72.15,29.18v12.01h-10.71v37.52h-13.52V0h13.52v29.18h10.71Z"/>
  <path class="st0" d="M147.81,32.85v10.67h-73.2v-10.67h73.2ZM82.73,12.59c.26-.89.51-1.61.75-2.17.29-.5.67-1.08,1.14-1.75.47-.67.99-1.22,1.58-1.67.47-.39,1.01-.81,1.62-1.25.61-.44,1.24-.83,1.89-1.17.64-.28,1.39-.6,2.24-.96.85-.36,1.74-.65,2.68-.88.76-.22,1.75-.44,2.98-.67,1.23-.22,2.4-.42,3.51-.58.94-.11,2.41-.25,4.43-.42s3.85-.25,5.49-.25,3.54.08,5.53.25c1.99.17,3.45.31,4.39.42,1.17.17,2.36.36,3.55.58,1.2.22,2.18.45,2.94.67.94.22,1.84.51,2.72.88.88.36,1.61.68,2.19.96.64.33,1.29.72,1.93,1.17.64.45,1.17.86,1.58,1.25.58.45,1.13,1,1.62,1.67.5.67.86,1.25,1.1,1.75.29.56.56,1.28.79,2.17.23.89.35,1.83.35,2.83s-.12,1.95-.35,2.83c-.23.89-.5,1.61-.79,2.17-.23.5-.6,1.08-1.1,1.75-.5.67-1.04,1.22-1.62,1.67-.41.39-.94.81-1.58,1.25-.64.45-1.29.83-1.93,1.17-.59.28-1.32.58-2.19.92-.88.33-1.79.64-2.72.92-.76.22-1.74.45-2.94.67-1.2.22-2.38.42-3.55.58-.94.11-2.4.25-4.39.42-1.99.17-3.83.25-5.53.25s-3.47-.08-5.49-.25-3.5-.3-4.43-.42c-1.11-.17-2.28-.36-3.51-.58-1.23-.22-2.22-.44-2.98-.67-.94-.28-1.83-.58-2.68-.92-.85-.33-1.59-.64-2.24-.92-.64-.33-1.27-.72-1.89-1.17-.61-.44-1.16-.86-1.62-1.25-.59-.44-1.11-1-1.58-1.67-.47-.67-.85-1.25-1.14-1.75-.24-.55-.48-1.28-.75-2.17-.26-.89-.4-1.83-.4-2.83s.13-1.95.4-2.83ZM83.39,77.37v-29.68h55.65v29.68h-55.65ZM96.68,16.09c.09.22.22.47.39.75.12.17.28.35.48.54.2.2.42.35.66.46.29.17.63.33,1.01.5.38.17.78.31,1.19.42.41.11.99.24,1.75.38.76.14,1.43.26,2.02.38.58.06,1.55.15,2.9.29,1.35.14,2.66.21,3.95.21s2.6-.07,3.95-.21c1.35-.14,2.31-.24,2.9-.29.64-.11,1.33-.24,2.06-.38.73-.14,1.3-.26,1.71-.38.47-.11.88-.25,1.23-.42.35-.17.67-.33.96-.5.23-.11.47-.26.7-.46.23-.19.38-.38.44-.54.18-.28.31-.53.39-.75.09-.22.13-.44.13-.67s-.04-.46-.13-.71-.22-.49-.39-.71c-.06-.17-.21-.35-.44-.54-.23-.19-.47-.35-.7-.46-.29-.17-.61-.33-.96-.5-.35-.17-.76-.3-1.23-.42-.41-.11-.98-.25-1.71-.42-.73-.17-1.42-.28-2.06-.33-.58-.11-1.55-.22-2.9-.33-1.35-.11-2.66-.17-3.95-.17s-2.6.06-3.95.17c-1.35.11-2.31.22-2.9.33-.59.06-1.26.17-2.02.33-.76.17-1.35.31-1.75.42-.41.11-.81.25-1.19.42-.38.17-.72.33-1.01.5-.23.11-.45.26-.66.46-.21.2-.37.38-.48.54-.17.22-.31.46-.39.71s-.13.49-.13.71.04.45.13.67ZM125.52,66.7v-8.34h-28.61v8.34h28.61Z"/>
  <path class="st0" d="M154.13,29.35v-10.84h43.54v10.84h-15.27c.06.45.1.97.13,1.58.03.61.07,1.17.13,1.67.12.56.28,1.43.48,2.63.2,1.2.42,2.1.66,2.71.29.72.7,1.67,1.23,2.83s1.05,2.14,1.58,2.92c.53.78,1.21,1.72,2.06,2.83.85,1.11,1.59,2,2.24,2.67.82.78,1.68,1.58,2.59,2.42.91.83,1.74,1.56,2.5,2.17.82.61,1.77,1.31,2.85,2.08,1.08.78,2,1.45,2.77,2l-9.39,9.59c-.58-.39-1.36-1-2.33-1.83-.97-.83-1.8-1.56-2.5-2.17-.7-.61-1.58-1.44-2.63-2.5-1.05-1.06-1.93-1.95-2.63-2.67-.76-.78-1.59-1.71-2.5-2.79s-1.71-2.1-2.41-3.04c-.18-.28-.35-.56-.53-.83-.17-.28-.41-.58-.7-.92-.47.89-1.01,1.81-1.62,2.75-.61.95-1.24,1.83-1.89,2.67-.82,1.06-1.8,2.18-2.94,3.38-1.14,1.2-2.12,2.18-2.94,2.96-.88.83-1.95,1.81-3.2,2.92-1.26,1.11-2.3,1.97-3.12,2.58l-10.27-9.25c.99-.61,2.12-1.42,3.38-2.42,1.26-1,2.3-1.86,3.12-2.58.76-.61,1.59-1.36,2.5-2.25.91-.89,1.65-1.69,2.24-2.42.64-.72,1.32-1.54,2.02-2.46.7-.92,1.29-1.76,1.76-2.54.47-.72.89-1.47,1.27-2.25.38-.78.69-1.53.92-2.25.23-.61.48-1.42.75-2.42.26-1,.42-1.83.48-2.5.12-.5.21-1.29.26-2.38.06-1.08.09-2.04.09-2.88h-14.66ZM189.24,3.67v11h-26.68V3.67h26.68ZM228.21,29.18v12.01h-10.53v37.52h-13.52V0h13.52v29.18h10.53Z"/>
</svg>